<svg width="32" height="32" viewBox="0 0 32 32" xmlns="http://www.w3.org/2000/svg">
  <!-- Background -->
  <rect width="32" height="32" rx="6" fill="#e3f2fd"/>
  
  <!-- Sun -->
  <circle cx="20" cy="12" r="6" fill="#ffc107"/>
  
  <!-- Sun rays -->
  <g stroke="#ffc107" stroke-width="1.5" stroke-linecap="round">
    <line x1="20" y1="2" x2="20" y2="4"/>
    <line x1="20" y1="20" x2="20" y2="22"/>
    <line x1="8" y1="12" x2="10" y2="12"/>
    <line x1="30" y1="12" x2="28" y2="12"/>
    <line x1="12.8" y1="6.8" x2="14.2" y2="8.2"/>
    <line x1="25.8" y1="15.8" x2="27.2" y2="17.2"/>
    <line x1="27.2" y1="6.8" x2="25.8" y2="8.2"/>
    <line x1="14.2" y1="15.8" x2="12.8" y2="17.2"/>
  </g>
  
  <!-- Cloud -->
  <path d="M6 20c0-1.5 1.2-2.8 2.7-2.8.7 0 1.3.3 1.8.7.8-.9 2-1.4 3.3-1.4 2.2 0 4 1.8 4 4 0 .2 0 .4-.1.6.9.4 1.5 1.3 1.5 2.4 0 1.4-1.1 2.5-2.5 2.5H8.5c-.8 0-1.5-.7-1.5-1.5s.7-1.5 1.5-1.5c.1 0 .3 0 .4.1C6.7 22.2 6 21.2 6 20z" fill="#81c784"/>
  
  <!-- Cloud highlight -->
  <ellipse cx="12" cy="20" rx="4" ry="2" fill="#a5d6a7" opacity="0.7"/>
</svg>
