<svg width="32" height="32" viewBox="0 0 32 32" xmlns="http://www.w3.org/2000/svg">
  <!-- Background circle -->
  <circle cx="16" cy="16" r="16" fill="#1e40af"/>
  
  <!-- Cloud -->
  <path d="M8 18c0-2.5 2-4.5 4.5-4.5 1.1 0 2.1.4 2.9 1.1C16.2 13.1 17.5 12.5 19 12.5c2.8 0 5 2.2 5 5 0 .3 0 .6-.1.8 1.2.5 2.1 1.7 2.1 3.2 0 1.9-1.6 3.5-3.5 3.5H10c-1.1 0-2-.9-2-2s.9-2 2-2c.2 0 .4 0 .6.1C8.2 20.2 8 19.1 8 18z" fill="#ffffff"/>
  
  <!-- Sun rays (partial) -->
  <g stroke="#fbbf24" stroke-width="2" stroke-linecap="round">
    <line x1="22" y1="10" x2="24" y2="8"/>
    <line x1="26" y1="14" x2="28" y2="14"/>
    <line x1="24" y1="18" x2="26" y2="20"/>
  </g>
  
  <!-- Sun (partial) -->
  <circle cx="20" cy="12" r="3" fill="#fbbf24"/>
</svg>
