<svg width="32" height="32" viewBox="0 0 32 32" xmlns="http://www.w3.org/2000/svg">
  <!-- Background circle -->
  <circle cx="16" cy="16" r="16" fill="#1e40af"/>
  
  <!-- Sun -->
  <circle cx="20" cy="12" r="4" fill="#fbbf24"/>
  
  <!-- Sun rays -->
  <g stroke="#fbbf24" stroke-width="1" stroke-linecap="round">
    <line x1="20" y1="6" x2="20" y2="7"/>
    <line x1="23" y1="7" x2="22.5" y2="7.5"/>
    <line x1="24" y1="10" x2="23" y2="10"/>
    <line x1="26" y1="12" x2="25" y2="12"/>
    <line x1="25" y1="15" x2="24.5" y2="14.5"/>
    <line x1="23" y1="17" x2="22.5" y2="16.5"/>
    <line x1="17" y1="17" x2="17.5" y2="16.5"/>
    <line x1="16" y1="15" x2="17" y2="15"/>
    <line x1="15" y1="9" x2="15.5" y2="9.5"/>
    <line x1="17" y1="7" x2="17.5" y2="7.5"/>
  </g>
  
  <!-- Main cloud -->
  <path d="M8 18c0-2.5 2-4.5 4.5-4.5 1.1 0 2.1.4 2.9 1.1C16.2 13.1 17.5 12.5 19 12.5c2.8 0 5 2.2 5 5 0 .3 0 .6-.1.8 1.2.5 2.1 1.7 2.1 3.2 0 1.9-1.6 3.5-3.5 3.5H10c-1.1 0-2-.9-2-2s.9-2 2-2c.2 0 .4 0 .6.1C8.2 20.2 8 19.1 8 18z" fill="#ffffff"/>
  
  <!-- Rain drops -->
  <g fill="#60a5fa" opacity="0.8">
    <ellipse cx="12" cy="24" rx="1" ry="2"/>
    <ellipse cx="16" cy="26" rx="1" ry="2"/>
    <ellipse cx="20" cy="24" rx="1" ry="2"/>
  </g>
</svg>
