<svg xmlns="http://www.w3.org/2000/svg" viewBox="0 0 100 100" width="100" height="100">
  <!-- Background circle -->
  <circle cx="50" cy="50" r="48" fill="#1e3a8a" stroke="#3b82f6" stroke-width="2"/>
  
  <!-- Sun -->
  <circle cx="35" cy="35" r="12" fill="#fbbf24"/>
  <g stroke="#fbbf24" stroke-width="2" stroke-linecap="round">
    <line x1="35" y1="15" x2="35" y2="20"/>
    <line x1="35" y1="50" x2="35" y2="55"/>
    <line x1="15" y1="35" x2="20" y2="35"/>
    <line x1="50" y1="35" x2="55" y2="35"/>
    <line x1="23.2" y1="23.2" x2="26.4" y2="26.4"/>
    <line x1="43.6" y1="43.6" x2="46.8" y2="46.8"/>
    <line x1="46.8" y1="23.2" x2="43.6" y2="26.4"/>
    <line x1="26.4" y1="43.6" x2="23.2" y2="46.8"/>
  </g>
  
  <!-- Cloud -->
  <ellipse cx="60" cy="55" rx="18" ry="12" fill="#f8fafc"/>
  <circle cx="50" cy="55" r="10" fill="#f8fafc"/>
  <circle cx="70" cy="55" r="8" fill="#f8fafc"/>
  
  <!-- Rain drops -->
  <g fill="#3b82f6">
    <ellipse cx="52" cy="72" rx="2" ry="4"/>
    <ellipse cx="62" cy="75" rx="2" ry="4"/>
    <ellipse cx="68" cy="72" rx="2" ry="4"/>
  </g>
</svg>
